<svg xmlns="http://www.w3.org/2000/svg" viewBox="0 0 59.16 89.42"><metadata xmlns:fl="https://football-logos.cc/tournaments/africa-cup-of-nations-2025">dl1_0aea7ad8c836001bab0fc69922880fd3058d8fe21a7a61949a79cc3e84f02fef</metadata><!-- Source: https://football-logos.cc --><defs data-source="https://football-logos.cc"><clipPath id="c" clipPathUnits="userSpaceOnUse"><path d="M0 841.89h1190.55V0H0Z"></path></clipPath></defs><g clip-path="url(#c)" transform="matrix(.28853 0 0 -.28853 -95.49 190.682)"><path d="m0 0-.919 16.693-7.003-15.102h-2.122l-7.144 15.067L-17.789 0h-2.617l1.485 21.892h3.395l7.534-16.021 7.32 16.021h3.219L3.749 0Z" style="fill:#0ec76a;fill-opacity:1;fill-rule:nonzero;stroke:none" transform="translate(351.355 351.497)"></path><path d="M0 0c0 5.022-2.228 9.514-6.896 9.514-4.457 0-7.145-4.598-7.145-9.479 0-5.022 2.264-9.513 6.897-9.513C-2.688-9.478 0-4.88 0 0m-18.178-.177c0 6.861 5.057 11.671 11.282 11.671 6.825 0 11.034-4.173 11.034-11.282 0-6.861-5.058-11.671-11.282-11.671-6.826 0-11.034 4.174-11.034 11.282" style="fill:#0ec76a;fill-opacity:1;fill-rule:nonzero;stroke:none" transform="translate(377.807 362.425)"></path><path d="M0 0c3.961 0 5.623 2.157 5.623 4.986 0 2.936-1.521 4.775-5.163 4.775-.46 0-1.026-.035-1.733-.106V.106A8 8 0 0 1 0 0m6.507-10.716L1.203-1.804H.849c-.743 0-1.415.035-2.122.071v-8.983h-3.855v21.821c1.485.283 4.032.389 5.27.389 6.118 0 9.477-2.193 9.477-6.614 0-2.829-1.874-4.986-4.703-6.012l6.083-9.584z" style="fill:#0ec76a;fill-opacity:1;fill-rule:nonzero;stroke:none" transform="translate(392.199 362.213)"></path><path d="M0 0c0 5.022-2.228 9.514-6.896 9.514-4.456 0-7.144-4.598-7.144-9.479 0-5.022 2.263-9.513 6.896-9.513C-2.688-9.478 0-4.88 0 0m-18.178-.177c0 6.861 5.057 11.671 11.282 11.671C-.07 11.494 4.138 7.321 4.138.212c0-6.861-5.057-11.671-11.282-11.671-6.825 0-11.034 4.174-11.034 11.282" style="fill:#0ec76a;fill-opacity:1;fill-rule:nonzero;stroke:none" transform="translate(424.38 362.425)"></path><path d="M0 0c0 7.003 5.022 11.742 11.776 11.742 2.229 0 4.35-.531 6.048-1.591l-1.131-2.017C15.242 9.16 13.722 9.62 11.989 9.62c-5.093 0-7.745-4.209-7.745-9.195 0-5.093 2.405-9.372 7.462-9.372 1.91 0 3.678.46 5.199 1.626l1.026-1.733c-1.91-1.485-4.457-2.157-6.897-2.157C4.279-11.211 0-6.931 0 0" style="fill:#0ec76a;fill-opacity:1;fill-rule:nonzero;stroke:none" transform="translate(432.159 362.177)"></path><path d="M0 0c0 7.003 5.022 11.742 11.776 11.742 2.229 0 4.35-.531 6.048-1.591l-1.131-2.017C15.242 9.16 13.722 9.62 11.989 9.62c-5.093 0-7.745-4.209-7.745-9.195 0-5.093 2.405-9.372 7.462-9.372 1.91 0 3.678.46 5.199 1.626l1.026-1.733c-1.91-1.485-4.457-2.157-6.897-2.157C4.279-11.211 0-6.931 0 0" style="fill:#0ec76a;fill-opacity:1;fill-rule:nonzero;stroke:none" transform="translate(452.528 362.177)"></path><path d="M0 0c0 5.022-2.228 9.514-6.897 9.514-4.456 0-7.143-4.598-7.143-9.479 0-5.022 2.263-9.513 6.896-9.513C-2.688-9.478 0-4.88 0 0m-18.178-.177c0 6.861 5.057 11.671 11.281 11.671 6.826 0 11.034-4.173 11.034-11.282 0-6.861-5.057-11.671-11.281-11.671-6.826 0-11.034 4.174-11.034 11.282" style="fill:#0ec76a;fill-opacity:1;fill-rule:nonzero;stroke:none" transform="translate(490.863 362.425)"></path><path d="M0 0h-14.107l-.231.491c1.099 1.388 7.111 8.441 8.181 9.8 1.792 2.197 2.486 3.44 2.486 5.088 0 1.85-1.561 3.526-3.961 3.526-1.532 0-3.093-.462-4.798-1.879l.029 3.903c1.589.925 3.411 1.33 5.232 1.33 4.51-.029 7.487-2.978 7.487-6.707.029-2.688-1.301-4.394-3.469-6.995-.751-.925-2.948-3.382-4.741-5.348H1.33Z" style="fill:#0ec76a;fill-opacity:1;fill-rule:nonzero;stroke:none" transform="translate(517.58 351.66)"></path><path d="M0 0c-1.619 0-3.816.434-5.406 1.301v3.353A11 11 0 0 1 0 3.238c3.151 0 5.406 1.879 5.406 4.625 0 2.284-2.168 4.047-5.493 4.047-1.561 0-2.861-.26-4.162-.723l2.688 11.072h11.708l-1.041-3.296H1.07L0 14.916c.376.029.752.058 1.127.058 5.233 0 8.239-2.948 8.239-7.082C9.366 3.267 5.695 0 0 0" style="fill:#0ec76a;fill-opacity:1;fill-rule:nonzero;stroke:none" transform="translate(525.848 350.966)"></path><path d="M0 0h15.383v-5.308H6.018v-5.375h8.215v-5.307H6.018v-9.23H0Z" style="fill:#fff;fill-opacity:1;fill-rule:nonzero;stroke:none" transform="translate(359.274 437.404)"></path><path d="M0 0v-6.727h1.386c2.367 0 3.787 1.216 3.787 3.414C5.173-1.082 3.617 0 1.386 0Zm.372-11.46H0v-8.419h-6.018v25.22h7.235c4.97 0 9.905-1.825 9.905-8.553 0-3.347-1.994-5.679-4.597-6.964l7.032-9.703H6.356Z" style="fill:#fff;fill-opacity:1;fill-rule:nonzero;stroke:none" transform="translate(383.833 432.063)"></path><path d="M399.879 437.404h6.018v-25.22h-6.018z" style="fill:#fff;fill-opacity:1;fill-rule:nonzero;stroke:none"></path><path d="M0 0c-1.487.98-3.245 1.454-5.139 1.454-4.8 0-7.843-3.618-7.843-7.844 0-4.327 3.043-7.978 7.843-7.978 1.894 0 3.652.473 5.139 1.454l2.671-4.463C0-19.135-2.502-19.879-5.342-19.879c-8.215 0-13.692 6.018-13.692 13.456 0 7.403 5.477 13.387 13.692 13.387 2.84 0 5.274-.71 8.013-2.502z" style="fill:#fff;fill-opacity:1;fill-rule:nonzero;stroke:none" transform="translate(428.406 431.252)"></path><path d="M0 0c-1.487.98-3.245 1.454-5.139 1.454-4.8 0-7.843-3.618-7.843-7.844 0-4.327 3.043-7.978 7.843-7.978 1.894 0 3.652.473 5.139 1.454l2.671-4.463C0-19.135-2.502-19.879-5.342-19.879c-8.215 0-13.692 6.018-13.692 13.456 0 7.403 5.477 13.387 13.692 13.387 2.84 0 5.274-.71 8.013-2.502z" style="fill:#fff;fill-opacity:1;fill-rule:nonzero;stroke:none" transform="translate(487.42 431.252)"></path><path d="M0 0c-6.694 0-10.446 4.226-10.446 11.697v14.334h6.017V10.615c0-3.346 2.13-5.172 4.429-5.172 2.333 0 4.429 1.826 4.429 5.172v15.416h6.051V11.697C10.48 4.226 6.762 0 0 0" style="fill:#fff;fill-opacity:1;fill-rule:nonzero;stroke:none" transform="translate(503.633 411.373)"></path><path d="M0 0v-6.491h2.096c2.265 0 3.787 1.116 3.787 3.178C5.883-1.115 4.598 0 2.096 0Zm0-11.731v-8.148h-6.018v25.22h7.641c5.206 0 10.176-1.386 10.21-8.654-.034-6.221-5.612-8.418-10.311-8.418z" style="fill:#fff;fill-opacity:1;fill-rule:nonzero;stroke:none" transform="translate(524.162 432.063)"></path><path d="M0 0c-1.226 0-2.4-.164-3.51-.454l.165.454L.001 9.229 3.314 0l.162-.452A13.7 13.7 0 0 1 0 0m3.044 16.734h-5.95l-9.77-25.219h6.296c1.114 2.182 3.411 3.683 6.183 3.752h.392c2.752-.069 5.043-1.57 6.155-3.752h6.464z" style="fill:#fff;fill-opacity:1;fill-rule:nonzero;stroke:none" transform="translate(445.444 420.67)"></path><path d="M0 0c-1.226 0-2.4-.164-3.51-.454l.165.454L.001 9.229 3.314 0l.163-.452A13.7 13.7 0 0 1 0 0m3.044 16.734h-5.95l-9.77-25.219h6.296c1.114 2.182 3.411 3.683 6.183 3.752h.392c2.752-.069 5.043-1.57 6.155-3.752h6.464z" style="fill:#fff;fill-opacity:1;fill-rule:nonzero;stroke:none" transform="translate(343.984 420.852)"></path><path d="M0 0v-14.987h-5.995v25.124h5.759l10.912-15.02v15.02h5.995v-25.124h-5.725z" style="fill:#fff;fill-opacity:1;fill-rule:nonzero;stroke:none" transform="translate(392.693 394.466)"></path><path d="M0 0h-5.434v5.388h16.829V0h-5.4v-19.735H0Z" style="fill:#fff;fill-opacity:1;fill-rule:nonzero;stroke:none" transform="translate(441.017 399.214)"></path><path d="M454.889 404.603h5.995v-25.124h-5.995z" style="fill:#fff;fill-opacity:1;fill-rule:nonzero;stroke:none"></path><path d="M0 0c0-4.344 3.435-7.88 7.914-7.88 4.446 0 7.881 3.536 7.881 7.88 0 4.378-3.435 7.881-7.881 7.881C3.435 7.881 0 4.378 0 0m21.823.034c0-7.409-6.129-13.404-13.909-13.404C.067-13.37-6.029-7.375-6.029.034c0 7.375 6.096 13.337 13.943 13.337 7.78 0 13.909-5.962 13.909-13.337" style="fill:#fff;fill-opacity:1;fill-rule:nonzero;stroke:none" transform="translate(469.743 392.04)"></path><path d="M0 0v-14.987h-5.995v25.124h5.759l10.912-15.02v15.02h5.995v-25.124h-5.725z" style="fill:#fff;fill-opacity:1;fill-rule:nonzero;stroke:none" transform="translate(500.42 394.466)"></path><path d="M0 0c-1.078.775-2.526 1.347-3.839 1.347-1.718 0-2.56-.673-2.56-1.684 0-1.246 1.246-2.087 3.536-4.176 4.042-3.637 5.355-5.758 5.355-8.385 0-4.345-3.907-6.938-8.824-6.938-2.256 0-5.152.639-7.072 1.751l2.088 4.614c1.583-.876 3.132-1.516 4.951-1.516 1.717 0 2.761.91 2.761 1.988 0 1.279-1.212 2.424-3.603 4.579-4.042 3.503-5.456 5.12-5.456 8.083 0 3.368 2.694 6.534 8.689 6.534 1.987 0 4.277-.673 6.096-1.617z" style="fill:#fff;fill-opacity:1;fill-rule:nonzero;stroke:none" transform="translate(533.503 398.911)"></path><path d="M0 0a13.9 13.9 0 0 1-3.497-.452l.164.452L.001 9.194 3.302 0l.161-.45C2.366-.163 1.207 0 0 0m3.033 16.671h-5.928l-9.733-25.124h6.272c1.11 2.174 3.399 3.669 6.16 3.738h.391c2.74-.069 5.023-1.564 6.131-3.738h6.439z" style="fill:#fff;fill-opacity:1;fill-rule:nonzero;stroke:none" transform="translate(425.116 387.932)"></path><path d="M0 0c0-4.346 3.436-7.883 7.917-7.883C12.364-7.883 15.8-4.346 15.8 0c0 4.38-3.436 7.884-7.883 7.884C3.436 7.884 0 4.38 0 0m21.83.034c0-7.412-6.131-13.408-13.913-13.408-7.85 0-13.948 5.996-13.948 13.408 0 7.378 6.098 13.341 13.948 13.341 7.782 0 13.913-5.963 13.913-13.341" style="fill:#fff;fill-opacity:1;fill-rule:nonzero;stroke:none" transform="translate(337.338 392.037)"></path><path d="M0 0h15.329v-5.289H5.997v-5.356h8.186v-5.29H5.997v-9.197H0Z" style="fill:#fff;fill-opacity:1;fill-rule:nonzero;stroke:none" transform="translate(361.583 404.603)"></path><path d="M0 0c-1.96 0-3.341 1.459-3.341 3.388 0 2.031 1.535 3.384 3.341 3.384 1.763 0 3.305-1.353 3.305-3.384C3.306 1.349 1.763 0 0 0m0 6.185c-1.471 0-2.619-1.149-2.619-2.797C-2.619 1.85-1.621.596 0 .596c1.436 0 2.584 1.135 2.584 2.792 0 1.648-1.148 2.797-2.584 2.797m-.675-4.738h-.619v3.751H.13c.899 0 1.365-.323 1.365-1.072 0-.682-.414-.963-.975-1.022l1.045-1.656h-.69l-.974 1.597h-.576zm.683 2.127c.462 0 .868.051.868.595 0 .442-.438.504-.813.504h-.738V3.574Z" style="fill:#8d0000;fill-opacity:1;fill-rule:nonzero;stroke:none" transform="translate(449.187 472.605)"></path></g><path d="M0 0h-13.137c-.665-.892-1.924-6.157-1.924-6.157-10.816-14.124-16.983-31.232-18.348-50.937a6.2 6.2 0 0 1 .285-2.325v-5.309a6.15 6.15 0 0 1-.563-2.659c.213-15.176 3.108-31.812 8.604-49.444a6.16 6.16 0 0 1 4.299-4.119l1.044-2.057a6.16 6.16 0 0 1 .614-4.22l2.453-4.509q.372-.684.896-1.247h-48.344c.347.374.649.793.896 1.247l2.452 4.51a6.16 6.16 0 0 1 .613 4.22l1.043 2.055a6.16 6.16 0 0 1 4.301 4.12c5.496 17.632 8.391 34.267 8.604 49.444a6.15 6.15 0 0 1-.816 3.15v4.167c.42.922.61 1.944.539 2.976-1.366 19.706-7.533 36.813-18.349 50.937L-67.272 0h-12.627a9.38 9.38 0 0 1 6.968-5.979c12.065-13.861 18.888-31.19 20.299-51.541h-.553v-9.781h.816c-.205-14.593-3.003-30.621-8.326-47.698a4.42 4.42 0 0 1-3.525-2.402l-2.063-4.064a2.9 2.9 0 0 1 .1-2.82l-2.452-4.51a4.43 4.43 0 0 1-2.151-2.031l-4.22-8.315s8.285-6.135 35.056-6.157 35.056 6.157 35.056 6.157l-4.22 8.315a4.44 4.44 0 0 1-2.15 2.031l-2.452 4.51a2.9 2.9 0 0 1 .099 2.82l-2.063 4.063a4.41 4.41 0 0 1-3.524 2.403c-5.323 17.076-8.121 33.105-8.326 47.698h.564v9.781h-.301c1.41 20.351 8.234 37.68 20.299 51.541A9.38 9.38 0 0 1 0 0" style="fill:#fff;fill-opacity:1;fill-rule:nonzero;stroke:none" transform="matrix(.28853 0 0 -.28853 41.108 20.528)"></path><path d="M0 0h.001Z" style="fill:#fff;fill-opacity:1;fill-rule:nonzero;stroke:none" transform="matrix(.28853 0 0 -.28853 29.581 55.207)"></path><path d="M0 0c.036.614.863 1.88.863 1.88.598 1.168.114 1.72.114 1.72-.076-.278-.284-.524-.284-.524a8.3 8.3 0 0 1-1.181-.773c-.12-.41-.043-.827-.043-.827l-.386-.401C-.837.699-.926.073-.926.073-.611-.391 0 0 0 0" style="fill:#fff;fill-opacity:1;fill-rule:nonzero;stroke:none" transform="matrix(.28853 0 0 -.28853 31.747 11.326)"></path><path d="M0 0c-.648-.392-2.309-.538-2.309-.538-2.401 2.515-2.826 5.399-2.826 5.399-.896-.063-3.207.405-3.207.405a.87.87 0 0 1-.298-.564c-.325-.069-2.027.68-2.027.68a3.8 3.8 0 0 1-.167 1.035c-1.509.156-4.015-.409-4.015-.409s-4.497-2.48-3.982-4.879c.513-2.401 2.719-3.584 2.719-3.584 2.976.91 4.495-.018 4.495-.018.299-.829-.03-1.49-.03-1.49 1.011-.719 1.393-2.963 1.393-2.963-.517-.699-.587-1.513-.587-1.513.429-1.69 1.744-4.407 1.744-4.407l2.625.242c2.415 2.557 2.036 3.579 2.036 3.579.794.163 1.44.987 1.44.987-.473 1.627-.102 3.617-.102 3.617C.671-1.092 0 0 0 0" style="fill:#fff;fill-opacity:1;fill-rule:nonzero;stroke:none" transform="matrix(.28853 0 0 -.28853 32.297 8.226)"></path><path d="M0 0a6.745 6.745 0 1 1 0 13.49A6.745 6.745 0 0 1 0 0" style="fill:#fff;fill-opacity:1;fill-rule:nonzero;stroke:none" transform="matrix(.28853 0 0 -.28853 17.596 18.35)"></path><path d="M0 0a6.745 6.745 0 1 1 13.49 0A6.745 6.745 0 0 1 0 0" style="fill:#fff;fill-opacity:1;fill-rule:nonzero;stroke:none" transform="matrix(.28853 0 0 -.28853 39.62 16.404)"></path><path d="M0 0a8.01 8.01 0 0 1 8.009-8.009 8.009 8.009 0 1 1 0 16.018A8.01 8.01 0 0 1 0 0" style="fill:#fff;fill-opacity:1;fill-rule:nonzero;stroke:none" transform="matrix(.28853 0 0 -.28853 33.7 16.493)"></path><path d="M0 0a8.626 8.626 0 0 1-8.627-8.627A8.626 8.626 0 0 1 0-17.254a8.626 8.626 0 0 1 8.627 8.627A8.626 8.626 0 0 1 0 0" style="fill:#fff;fill-opacity:1;fill-rule:nonzero;stroke:none" transform="matrix(.28853 0 0 -.28853 29.581 15.07)"></path><path d="M0 0a8.01 8.01 0 0 1 8.01-8.009A8.01 8.01 0 0 1 16.019 0 8.01 8.01 0 0 1 8.01 8.009 8.01 8.01 0 0 1 0 0" style="fill:#fff;fill-opacity:1;fill-rule:nonzero;stroke:none" transform="matrix(.28853 0 0 -.28853 20.84 16.581)"></path><path d="M0 0c.082.841.343 2.554.501 3.38C3.286 19.787 18.1 32.799 34.849 32.525c18.298.074 33.17-14.661 34.692-32.693l3.603-.009c4.709 19.627-10.355 39.359-29.677 43.292-19.945 4.536-41.423-7.399-46.723-27.339C-4.61 10.506-4.87 5.048-3.603.009Z" style="fill:#fff;fill-opacity:1;fill-rule:nonzero;stroke:none" transform="matrix(.28853 0 0 -.28853 19.542 12.717)"></path><path d="M0 0c-10.816-14.124-16.983-31.231-18.348-50.937a6.2 6.2 0 0 1 .285-2.324v-5.31a6.16 6.16 0 0 1-.562-2.659c.212-15.176 3.107-31.811 8.603-49.443a6.16 6.16 0 0 1 4.299-4.12l1.045-2.056a6.15 6.15 0 0 1 .614-4.22l2.452-4.51a6.2 6.2 0 0 1 .896-1.247H-49.06c.347.375.649.793.896 1.248l2.452 4.509a6.16 6.16 0 0 1 .613 4.221l1.044 2.055a6.16 6.16 0 0 1 4.3 4.12c5.496 17.631 8.391 34.267 8.604 49.443a6.16 6.16 0 0 1-.815 3.15v4.167c.42.923.61 1.945.538 2.976-1.366 19.707-7.84 37.43-18.657 51.553z" style="fill:#fff;fill-opacity:1;fill-rule:nonzero;stroke:none" transform="matrix(.28853 0 0 -.28853 36.762 22.305)"></path><path d="M0 0h-.002" style="fill:#c3a863;fill-opacity:1;fill-rule:nonzero;stroke:#fff;stroke-width:3;stroke-linecap:square;stroke-linejoin:bevel;stroke-miterlimit:10;stroke-dasharray:none;stroke-opacity:1" transform="matrix(.28853 0 0 -.28853 29.577 58.905)"></path><path d="m0 0-1.456 1.088-.209.218c-1.046 1.536-3.924 5.7-4.835 6.891l.936 1.451L7.545 6.604l.668-1.167-.349-.511L1.089-.007Z" style="fill:#e64d4e;fill-opacity:1;fill-rule:nonzero;stroke:none" transform="matrix(.28853 0 0 -.28853 23.39 23.564)"></path><path d="m0 0-1.872-2.903c.94-1.227 3.894-5.511 4.806-6.85l.418-.436 1.455-1.088 2.179-.014 6.775 4.933.671.936.013.043-1.336 2.335zm-.415-1.787 13.109-3.044-.013-.044-6.775-4.932-1.455 1.088C3.551-7.4.559-3.059-.415-1.787" style="fill:#fff;fill-opacity:1;fill-rule:nonzero;stroke:none" transform="matrix(.28853 0 0 -.28853 21.844 20.522)"></path><path d="m0 0-.013.01-.347.596a104 104 0 0 1-1.464 8.022l1.457.926L5.71 4.845l-.016-1.463L1.106-.012Z" style="fill:#c3a863;fill-opacity:1;fill-rule:nonzero;stroke:none" transform="matrix(.28853 0 0 -.28853 27.26 34.608)"></path><path d="m0 0-2.914-1.852a104 104 0 0 0 1.45-7.951l.682-1.183 2.239-.043 4.588 3.395.032 2.925zm-1.124-1.451 6.077-4.708L.366-9.554l-.013.01a105 105 0 0 1-1.477 8.093" style="fill:#fff;fill-opacity:1;fill-rule:nonzero;stroke:none" transform="matrix(.28853 0 0 -.28853 27.316 31.642)"></path><path d="m0 0-.016 1.463 6.077 4.709 1.457-.926a104 104 0 0 1-1.463-8.021l-.353-.601-1.116-.018Z" style="fill:#c3a863;fill-opacity:1;fill-rule:nonzero;stroke:none" transform="matrix(.28853 0 0 -.28853 30.251 33.633)"></path><path d="M0 0h.003Zm.003 3.67H0V2.571l-1.124.714-6.077-4.708.033-2.926 4.585-3.394 2.224.03.699 1.196c.388 2.714.876 5.389 1.45 7.951L.002 2.57ZM0 1.835a105 105 0 0 1-1.476-8.092l-.015-.012-4.586 3.395zm0 0h.003" style="fill:#fff;fill-opacity:1;fill-rule:nonzero;stroke:none" transform="matrix(.28853 0 0 -.28853 32.162 32.59)"></path><path d="M0 0a91 91 0 0 1-4.179 10.902l.833 1.301h4.24l.557-.188 4.571-3.489.325-.983-1.55-5.363-.35-.494L1.408-.475Z" style="fill:#52c4c6;fill-opacity:1;fill-rule:nonzero;stroke:none" transform="matrix(.28853 0 0 -.28853 26.149 29.93)"></path><path d="M0 0h-4.24l-1.667-2.602A89.5 89.5 0 0 0-1.77-13.394l2.815-.95 3.04 2.162.7.986 1.549 5.363-.649 1.968L1.113-.376zm0-1.835 4.572-3.489-1.55-5.363-3.04-2.161A91 91 0 0 1-4.24-1.835z" style="fill:#fff;fill-opacity:1;fill-rule:nonzero;stroke:none" transform="matrix(.28853 0 0 -.28853 26.407 26.144)"></path><path d="m0 0-.35.493-1.548 5.363.324.984 4.571 3.489.557.188h4.24l.834-1.301a90.5 90.5 0 0 1-4.18-10.903l-1.407-.475Z" style="fill:#52c4c6;fill-opacity:1;fill-rule:nonzero;stroke:none" transform="matrix(.28853 0 0 -.28853 31.722 29.444)"></path><path d="M0 0h.003Zm.003 3.67h-4.244l-1.113-.377-4.571-3.488-.649-1.968 1.549-5.363.699-.986 3.041-2.162 2.815.95A89 89 0 0 0 1.667 1.067L.003 3.665ZM0 1.835A91 91 0 0 1-4.222-9.179l-3.041 2.162-1.548 5.363 4.57 3.489zm0 0h.003" style="fill:#fff;fill-opacity:1;fill-rule:nonzero;stroke:none" transform="matrix(.28853 0 0 -.28853 33.97 27.203)"></path><path d="m0 0-.876.646-2.658 8.569-.003.537 1.407 4.656.878.653h5.546l.54-.176 2.869-2.09.336-.469 2.514-8.07-.319-1.003L6.217.188 5.661 0Z" style="fill:#4961b9;fill-opacity:1;fill-rule:nonzero;stroke:none" transform="matrix(.28853 0 0 -.28853 30.818 25.997)"></path><path d="M0 0h-5.546l-1.756-1.304-1.406-4.656.004-1.075 2.658-8.569 1.752-1.291h5.661l1.113.376 4.017 3.065.638 2.005-2.514 8.071-.672.937L1.08-.352zm0-1.835 2.869-2.089 2.515-8.071-4.017-3.065h-5.661l-2.658 8.569 1.406 4.656z" style="fill:#fff;fill-opacity:1;fill-rule:nonzero;stroke:none" transform="matrix(.28853 0 0 -.28853 32.057 21.387)"></path><path d="m0 0-.557.188-4.016 3.065-.319 1.003 2.514 8.07.335.469 2.87 2.09.54.176h5.546l.878-.653 1.407-4.656-.002-.537L6.536.646 5.66 0Z" style="fill:#4961b9;fill-opacity:1;fill-rule:nonzero;stroke:none" transform="matrix(.28853 0 0 -.28853 26.702 25.997)"></path><path d="M0 0h-5.546l-1.08-.352-2.869-2.089-.672-.938-2.514-8.07.638-2.005 4.017-3.065 1.113-.376h5.66L.5-15.604l2.659 8.569.004 1.075-1.407 4.656zm0-1.835 1.407-4.656-2.66-8.569h-5.66l-4.016 3.065 2.514 8.071 2.869 2.089z" style="fill:#fff;fill-opacity:1;fill-rule:nonzero;stroke:none" transform="matrix(.28853 0 0 -.28853 28.697 21.387)"></path><path d="m0 0-.817.5a86 86 0 0 1-2.832 5.104l.247 1.215 3.95 2.876L1.964 8.68.222 3.085l1.884-1.438L1.55 0Z" style="fill:#57c5e5;fill-opacity:1;fill-rule:nonzero;stroke:none" transform="matrix(.28853 0 0 -.28853 24.726 25.997)"></path><path d="M0 0h.003Zm.003 3.67H0V2.544l-1.08.774L-5.031.441l-.493-2.428a85 85 0 0 0 2.802-5.05l1.634-.999H.461l1.114 3.294L.2-3.693l1.552 4.982-1.75 1.254ZM0 1.835l-1.933-6.208L.461-6.201h-1.549a87 87 0 0 1-2.863 5.159zm0 0h.003" style="fill:#fff;fill-opacity:1;fill-rule:nonzero;stroke:none" transform="matrix(.28853 0 0 -.28853 25.04 23.943)"></path><path d="m0 0 .016 1.463L4.01 4.419l1.459-.826A109 109 0 0 1 5.206.458a5.3 5.3 0 0 1 .246-2.004l.045-.282v-.559l-1.48-.725z" style="fill:#4961b9;fill-opacity:1;fill-rule:nonzero;stroke:none" transform="matrix(.28853 0 0 -.28853 30.246 36.922)"></path><path d="M0 0h.003Zm.003 3.67H0v-.978l-1.092.618L-5.085.354l-.032-2.926L-1.1-5.684l2.959 1.45v.559l-.09.566a4.4 4.4 0 0 0-.203 1.657c.068.98.153 1.997.26 3.11L.002 2.691ZM0 1.835a119 119 0 0 1-.265-3.16 6.2 6.2 0 0 1 .289-2.35v-.559l-4.017 3.113zm0 0h.003" style="fill:#fff;fill-opacity:1;fill-rule:nonzero;stroke:none" transform="matrix(.28853 0 0 -.28853 31.56 36.39)"></path><path d="m0 0-.336.468.656 1.21 13.138 3.044.936-1.451c-.935-1.222-3.911-5.489-4.866-6.891l-.209-.218-1.456-1.088-1.089-.007Z" style="fill:#e64d4e;fill-opacity:1;fill-rule:nonzero;stroke:none" transform="matrix(.28853 0 0 -.28853 33.495 22.143)"></path><path d="M0 0h.003Zm.003 3.67H0v-.69l-.414.642L-13.553.578l-1.338-2.332.013-.043.672-.939 6.775-4.932 2.179.014 1.455 1.088.418.436C-2.424-4.729.539-.478 1.457.719L.002 2.976ZM0 1.835C-.974.563-3.996-3.777-4.896-5.096l-1.455-1.089-6.775 4.933-.013.043zm0 0h.003" style="fill:#fff;fill-opacity:1;fill-rule:nonzero;stroke:none" transform="matrix(.28853 0 0 -.28853 37.438 21.568)"></path><path d="m0 0-3.317-2.369-1.415 1.001.898 3.103-2.41 1.839.557 1.647h2.988l1.823 5.876H.876l1.823-5.876h2.99l.556-1.647-2.41-1.839.897-3.103-1.415-1.001Z" style="fill:#c3a863;fill-opacity:1;fill-rule:nonzero;stroke:none" transform="matrix(.28853 0 0 -.28853 29.577 27.915)"></path><path d="m0 0-1.623-5.23h-2.312l-1.113-3.294 1.91-1.458-.723-2.5 2.83-2.003 2.783 1.989 2.784-1.989 2.83 2.003-.723 2.5 1.911 1.458-1.11 3.285v.009H5.127L3.505 0Zm7.441-7.065h.003M1.752-.544l2.023-6.521h3.666l-2.909-2.22 1.071-3.707-3.851 2.751-3.85-2.751 1.072 3.707-2.909 2.22h3.664z" style="fill:#fff;fill-opacity:1;fill-rule:nonzero;stroke:none" transform="matrix(.28853 0 0 -.28853 29.071 24.635)"></path><path d="m0 0-.557 1.647 1.885 1.438L-.414 8.68l1.416 1.015 3.951-2.877.247-1.214A86 86 0 0 1 2.368.5L1.551 0Z" style="fill:#57c5e5;fill-opacity:1;fill-rule:nonzero;stroke:none" transform="matrix(.28853 0 0 -.28853 33.98 25.997)"></path><path d="m0 0-2.832-2.029 1.552-4.983-1.375-1.049 1.113-3.293H.009l1.633.999a85 85 0 0 0 2.803 5.05l-.493 2.428Zm-1.08-1.483 3.951-2.878A87 87 0 0 1 .009-9.519h-1.551L.853-7.691z" style="fill:#fff;fill-opacity:1;fill-rule:nonzero;stroke:none" transform="matrix(.28853 0 0 -.28853 34.425 22.986)"></path><path d="m0 0-2.406 7.966.002.537 2.658 8.569.876.645h3.18l.91-.803a174 174 0 0 1 2.038-12.48l-.36-.921-5.48-3.99z" style="fill:#e64d4e;fill-opacity:1;fill-rule:nonzero;stroke:none" transform="matrix(.28853 0 0 -.28853 30.492 49.248)"></path><path d="M0 0h-3.179l-1.753-1.291L-7.59-9.86l-.004-1.075 2.406-7.966 2.836-.952 5.48 3.989.72 1.843A173 173 0 0 0 1.821-1.607Zm0-1.835a174 174 0 0 1 2.049-12.546l-5.48-3.989-2.407 7.966 2.659 8.569z" style="fill:#fff;fill-opacity:1;fill-rule:nonzero;stroke:none" transform="matrix(.28853 0 0 -.28853 31.735 43.871)"></path><path d="m0 0-1.333 1.029-.316.998.613 1.97.876.645h2.247l.885-.678.112-.417q.147-.55.299-1.102l-.329-.975L1.115-.004Z" style="fill:#57c5e5;fill-opacity:1;fill-rule:nonzero;stroke:none" transform="matrix(.28853 0 0 -.28853 32.597 52.808)"></path><path d="M0 0h-2.247l-1.752-1.29-.613-1.969.631-1.998 1.334-1.029 2.231-.008L1.523-4.82l.658 1.951q-.157.569-.309 1.136l-.1.375zm0-1.835c.137-.508.271-1.015.412-1.524l-1.938-1.474-1.334 1.029.613 1.969z" style="fill:#fff;fill-opacity:1;fill-rule:nonzero;stroke:none" transform="matrix(.28853 0 0 -.28853 33.2 51.204)"></path><path d="m0 0-4.484 3.474v1.45L0 8.398h1.124l4.484-3.474v-1.45L1.124 0Z" style="fill:#57c5e5;fill-opacity:1;fill-rule:nonzero;stroke:none" transform="matrix(.28853 0 0 -.28853 29.415 36.278)" data-source="https://football-logos.cc"></path><path d="m0 0-4.484-3.474v-2.901L0-9.849h2.248l4.483 3.474v2.901L2.248 0Zm1.124-1.451 4.484-3.474-4.484-3.474-4.484 3.474Z" style="fill:#fff;fill-opacity:1;fill-rule:nonzero;stroke:none" transform="matrix(.28853 0 0 -.28853 29.253 33.646)"></path><path d="m0 0-1.712 1.267-.002.006-5.104 3.774-.336.992 1.532 5.302.35.494 5.286 3.759h1.064l5.286-3.759.35-.494 1.532-5.302-.336-.992-5.105-3.775v-.005L1.092 0Z" style="fill:#e64d4e;fill-opacity:1;fill-rule:nonzero;stroke:none" transform="matrix(.28853 0 0 -.28853 29.42 33.017)"></path><path d="M0 0h-2.127l-5.286-3.759-.699-.986-1.533-5.303.672-1.984 5.104-3.773.002-.006 1.712-1.267 2.183-.001 1.713 1.268.001.005 5.104 3.774.672 1.984-1.532 5.303-.7.986zm-1.063-1.495 5.286-3.759 1.532-5.303-5.107-3.776.002-.003-1.713-1.268-1.713 1.268.002.003-5.108 3.776 1.532 5.303z" style="fill:#fff;fill-opacity:1;fill-rule:nonzero;stroke:none" transform="matrix(.28853 0 0 -.28853 29.884 28.302)"></path><path d="m0 0-.544.179-3.622 2.669-.33.462-2.7 8.526.875 1.194h8.187l.56-.19.455-.351.258-.311.386-.76.079-.606a5.3 5.3 0 0 1 .53-3.637l2.478-4.558c.119-.219.259-.435.426-.657L6.809.641l-.747-.49L5.558 0Z" style="fill:#c3a863;fill-opacity:1;fill-rule:nonzero;stroke:none" transform="matrix(.28853 0 0 -.28853 34.69 59.17)"></path><path d="M0 0h-8.187l-1.749-2.389 2.699-8.526.661-.923 3.621-2.669 1.089-.358h5.558l1.007.301.747.491.458 2.638a4.4 4.4 0 0 0-.352.542L3.073-6.335a4.4 4.4 0 0 0-.437 3.008l-.159 1.212-.386.76-.515.622-.455.351zm0-1.835.455-.351.386-.76a6.22 6.22 0 0 1 .62-4.265L3.94-11.77q.223-.404.499-.77l-.747-.49h-5.558l-3.621 2.669-2.7 8.526z" style="fill:#fff;fill-opacity:1;fill-rule:nonzero;stroke:none" transform="matrix(.28853 0 0 -.28853 35.229 55.145)"></path><path d="m0 0-.875.64-.729 2.304.32 1.008L.093 4.998l1.115-.004 4.344-3.35L4.992 0Z" style="fill:#57c5e5;fill-opacity:1;fill-rule:nonzero;stroke:none" transform="matrix(.28853 0 0 -.28853 32.568 54.998)"></path><path d="m0 0-1.377-1.047-.639-2.014.729-2.304 1.75-1.281h4.992l1.121 3.287L2.231-.008zm1.111-1.461 4.344-3.35H.463l-.73 2.303z" style="fill:#fff;fill-opacity:1;fill-rule:nonzero;stroke:none" transform="matrix(.28853 0 0 -.28853 32.435 53.345)"></path><path d="m0 0-.36.922c.845 4.22 1.53 8.419 2.038 12.479l.911.804h3.178l.877-.646L9.303 4.99l.002-.537-2.407-7.966-1.418-.476Z" style="fill:#e64d4e;fill-opacity:1;fill-rule:nonzero;stroke:none" transform="matrix(.28853 0 0 -.28853 26.672 48.234)"></path><path d="M0 0h-3.179L-5-1.607a173 173 0 0 0-2.027-12.414l.719-1.843 5.481-3.989 2.836.952 2.407 7.966-.004 1.075-2.66 8.569zm0-1.835 2.659-8.569L.253-18.37l-5.481 3.989A174 174 0 0 1-3.179-1.835z" style="fill:#fff;fill-opacity:1;fill-rule:nonzero;stroke:none" transform="matrix(.28853 0 0 -.28853 28.336 43.871)"></path><path d="m0 0-1.823 5.875h-2.988l-.557 1.647 2.41 1.838-.898 3.104 1.415 1.002 3.317-2.37 3.317 2.37 1.415-1.001-.897-3.104 2.41-1.839-.556-1.647h-2.99L1.752 0Z" style="fill:#4961b9;fill-opacity:1;fill-rule:nonzero;stroke:none" transform="matrix(.28853 0 0 -.28853 29.324 45.42)"></path><path d="M0 0h.003Zm.003 3.67H0V2.573l-1.067.755-2.783-1.989-2.784 1.989-2.83-2.003.723-2.5-1.91-1.458 1.113-3.293h2.313l1.622-5.23h3.505l1.622 5.23h2.314l1.113 3.293L1.04-1.175l.723 2.5L.002 2.572zM0 1.835l-1.071-3.707 2.909-2.219h-3.665l-2.023-6.521-2.024 6.521h-3.664l2.909 2.219-1.072 3.707L-3.85-.916zm0 0h.003" style="fill:#fff;fill-opacity:1;fill-rule:nonzero;stroke:none" transform="matrix(.28853 0 0 -.28853 30.688 42.279)"></path><path d="m0 0-2.12-1.584-1.425.462-.851 2.724h-2.675l-.874 1.195.925 2.921-1.914 1.455-.005 1.457 1.85 1.427-.805 2.585.876 1.191h2.888l.908 3.005 1.421.474L0 15.991l1.802 1.321 1.421-.474.906-3.005h2.888l.876-1.191-.806-2.585L8.938 8.63l-.005-1.457-1.914-1.455.926-2.921-.874-1.195H4.396l-.85-2.724-1.425-.462Z" style="fill:#4961b9;fill-opacity:1;fill-rule:nonzero;stroke:none" transform="matrix(.28853 0 0 -.28853 29.577 55.46)"></path><path d="m0 0-1.259-.924L-2.517 0l-2.842-.949-.711-2.353h-2.207l-1.752-2.381.616-1.976-1.345-1.036.01-2.914 1.399-1.064-.73-2.306 1.749-2.389h2.001l.649-2.08 2.85-.923 1.571 1.173 1.572-1.174 2.85.924.649 2.08h2l1.749 2.389-.731 2.306 1.399 1.064.01 2.914-1.345 1.036.616 1.976-1.749 2.377v.004H3.552L2.842-.95zm5.758-5.137h.003M1.085-1.479l1.104-3.658h3.569l-.995-3.196 2.356-1.816-2.428-1.846 1.121-3.538h-3.35l-1.051-3.368-2.67 1.994-2.669-1.994-1.052 3.368h-3.35l1.121 3.538-2.429 1.846 2.356 1.816-.995 3.196h3.569l1.105 3.658 2.344-1.72z" style="fill:#fff;fill-opacity:1;fill-rule:nonzero;stroke:none" transform="matrix(.28853 0 0 -.28853 29.94 50.251)"></path><path d="m0 0-.878.652-.712 2.357.339 1.007 4.827 3.515 1.416-1.015L3.164.644 2.288 0Z" style="fill:#57c5e5;fill-opacity:1;fill-rule:nonzero;stroke:none" transform="matrix(.28853 0 0 -.28853 31.235 51.057)"></path><path d="M0 0h.003Zm.003 3.67H0V2.544l-1.08.774-4.827-3.515-.677-2.013.711-2.357 1.757-1.304h2.288l1.752 1.289L1.752 1.29.002 2.543zM0 1.835l-1.828-5.871h-2.288l-.711 2.356zm0 0h.003" style="fill:#fff;fill-opacity:1;fill-rule:nonzero;stroke:none" transform="matrix(.28853 0 0 -.28853 32.422 49.628)"></path><path d="m0 0-.874 1.195.198.626.33.462 7.117 5.244 1.42-.465 1.833-5.871L9.148 0Z" style="fill:#c3a863;fill-opacity:1;fill-rule:nonzero;stroke:none" transform="matrix(.28853 0 0 -.28853 26.216 59.17)"></path><path d="m0 0-7.117-5.244-.661-.923-.198-.626 1.749-2.389h9.148L4.673-6.8 2.84-.93Zm1.088-1.477 1.833-5.87h-9.148l.199.626z" style="fill:#fff;fill-opacity:1;fill-rule:nonzero;stroke:none" transform="matrix(.28853 0 0 -.28853 28.013 56.785)"></path><path d="M0 0v.099l.082.379c.365.801.525 1.688.464 2.566a111 111 0 0 1-.263 3.134l1.46.826 3.993-2.956.016-1.462L1.479-.725Z" style="fill:#4961b9;fill-opacity:1;fill-rule:nonzero;stroke:none" transform="matrix(.28853 0 0 -.28853 27.248 37.669)"></path><path d="m0 0-2.918-1.652c.108-1.112.193-2.129.261-3.108a4.4 4.4 0 0 0-.384-2.122l-.165-.76v-.099l2.959-1.45L4.026-5.88l-.033 2.925zm-1.091-1.475L2.902-4.43l-4.273-3.311v.099c.425.933.617 1.965.544 3.009q-.111 1.59-.264 3.158" style="fill:#fff;fill-opacity:1;fill-rule:nonzero;stroke:none" transform="matrix(.28853 0 0 -.28853 27.908 35.435)"></path><path d="m0 0 1.698 5.358.874.641h2.107l.876-.644.649-2.078-.332-1.012-4.453-3.281Z" style="fill:#57c5e5;fill-opacity:1;fill-rule:nonzero;stroke:none" transform="matrix(.28853 0 0 -.28853 26.497 57.14)"></path><path d="M0 0h-2.107l-1.749-1.281-1.697-5.358 2.837-2.031 4.454 3.28.663 2.025-.65 2.078zm0-1.835.649-2.077-4.453-3.281 1.697 5.358z" style="fill:#fff;fill-opacity:1;fill-rule:nonzero;stroke:none" transform="matrix(.28853 0 0 -.28853 27.847 55.145)"></path><path d="m0 0-5.286 3.759-.35.493-1.532 5.303.336.992 5.103 3.772.002.005 1.712 1.269h1.093l1.713-1.269v-.004l5.104-3.773.336-.992-1.532-5.303-.349-.493L1.063 0Z" style="fill:#52c4c6;fill-opacity:1;fill-rule:nonzero;stroke:none" transform="matrix(.28853 0 0 -.28853 29.423 41.615)"></path><path d="m0 0-2.186-.001-1.712-1.27-.001-.004-5.102-3.771-.673-1.985 1.533-5.303.699-.986 5.287-3.759h2.126l5.286 3.759.7.986 1.532 5.303-.672 1.985-5.103 3.771-.001.006zm-1.092-1.474 1.713-1.27-.003-.003 5.108-3.775-1.532-5.303-5.286-3.758-5.287 3.758-1.532 5.303 5.108 3.775-.002.002z" style="fill:#fff;fill-opacity:1;fill-rule:nonzero;stroke:none" transform="matrix(.28853 0 0 -.28853 29.892 36.903)"></path><path d="m0 0-.876 1.191L.957 7.062l1.42.465 7.118-5.244.33-.462.198-.627L9.149 0Z" style="fill:#c3a863;fill-opacity:1;fill-rule:nonzero;stroke:none" transform="matrix(.28853 0 0 -.28853 30.298 59.17)"></path><path d="m0 0-2.84-.931-1.832-5.87 1.751-2.381h9.149l1.749 2.388-.198.627-.661.923zm-1.088-1.477 7.117-5.244.199-.627h-9.149z" style="fill:#fff;fill-opacity:1;fill-rule:nonzero;stroke:none" transform="matrix(.28853 0 0 -.28853 31.14 56.785)"></path><path d="m0 0-.56 1.644 4.344 3.35 1.115.004 1.377-1.046.32-1.007L5.867.641 4.992 0Z" style="fill:#57c5e5;fill-opacity:1;fill-rule:nonzero;stroke:none" transform="matrix(.28853 0 0 -.28853 25.145 54.998)"></path><path d="m0 0-2.231-.008-4.344-3.351 1.121-3.287h4.992l1.749 1.281.729 2.304-.639 2.014zm-1.111-1.461L.267-2.508l-.729-2.303h-4.992z" style="fill:#fff;fill-opacity:1;fill-rule:nonzero;stroke:none" transform="matrix(.28853 0 0 -.28853 26.719 53.345)"></path><path d="m0 0-.504.151-.746.49-.229 1.319q.246.327.426.657l2.478 4.559c.603 1.109.791 2.4.529 3.637l.079.605.385.758.258.312.456.351.56.191h8.187l.875-1.194-2.699-8.526-.331-.462L6.102.179 5.558 0Z" style="fill:#c3a863;fill-opacity:1;fill-rule:nonzero;stroke:none" transform="matrix(.28853 0 0 -.28853 22.86 59.17)"></path><path d="M0 0h.003Zm.003 3.67h-8.19l-1.121-.382-.456-.352-.515-.622-.385-.758-.159-1.212a4.4 4.4 0 0 0-.437-3.009l-2.478-4.558a4.6 4.6 0 0 0-.353-.544l.458-2.637.747-.49 1.007-.301h5.558l1.088.357 3.622 2.669.661.924 2.699 8.526L.003 3.666zM0 1.835l-2.7-8.526-3.621-2.669h-5.558l-.747.49q.278.365.5.771l2.478 4.558a6.23 6.23 0 0 1 .62 4.266l.385.758.456.352zm0 0h.003" style="fill:#fff;fill-opacity:1;fill-rule:nonzero;stroke:none" transform="matrix(.28853 0 0 -.28853 26.287 56.204)"></path><path d="m0 0-.329.975q.155.56.303 1.116l.108.403.886.678h2.245l.876-.644.614-1.97-.316-.999L3.054-1.47l-1.115-.004Z" style="fill:#57c5e5;fill-opacity:1;fill-rule:nonzero;stroke:none" transform="matrix(.28853 0 0 -.28853 25.675 52.384)"></path><path d="M0 0h-2.246l-1.772-1.358-.1-.375Q-4.27-2.3-4.426-2.87l.657-1.95 1.939-1.474 2.231.008 1.333 1.029.632 1.998-.614 1.97zm0-1.835.614-1.969L-.72-4.833l-1.938 1.474c.141.509.275 1.016.412 1.524z" style="fill:#fff;fill-opacity:1;fill-rule:nonzero;stroke:none" transform="matrix(.28853 0 0 -.28853 26.602 51.204)"></path><path d="m0 0-.876.644-1.828 5.872 1.416 1.015 4.827-3.515.338-1.007L3.166.652 2.287 0Z" style="fill:#57c5e5;fill-opacity:1;fill-rule:nonzero;stroke:none" transform="matrix(.28853 0 0 -.28853 27.26 51.057)"></path><path d="m0 0-2.832-2.029L-1.004-7.9.748-9.189h2.288l1.756 1.304.712 2.356-.677 2.014zm-1.08-1.483 4.827-3.515-.711-2.356H.748Z" style="fill:#fff;fill-opacity:1;fill-rule:nonzero;stroke:none" transform="matrix(.28853 0 0 -.28853 27.043 48.67)"></path><path d="m0 0-.338 1.007 1.359 4.497h1.756l1.359-4.497L3.798.001l-1.359-.99-1.08-.001Z" style="fill:#57c5e5;fill-opacity:1;fill-rule:nonzero;stroke:none" transform="matrix(.28853 0 0 -.28853 29.029 49.95)"></path><path d="m0 0-1.359-4.497.676-2.014 1.359-.99h2.161l1.358.99.676 2.013L3.513-.001zm1.756-.531 1.359-4.497-1.359-.99-1.359.99z" style="fill:#fff;fill-opacity:1;fill-rule:nonzero;stroke:none" transform="matrix(.28853 0 0 -.28853 29.07 48.286)"></path><path d="m0 0-.331 1.012.649 2.078.876.644H3.3l.875-.641 1.697-5.358-1.419-1.016Z" style="fill:#57c5e5;fill-opacity:1;fill-rule:nonzero;stroke:none" transform="matrix(.28853 0 0 -.28853 30.963 56.487)"></path><path d="M0 0h-2.107l-1.751-1.287-.65-2.078.663-2.025L.609-8.67l2.837 2.031-1.697 5.358zm0-1.835 1.697-5.358-4.453 3.281.649 2.077z" style="fill:#fff;fill-opacity:1;fill-rule:nonzero;stroke:none" transform="matrix(.28853 0 0 -.28853 31.915 55.145)"></path><path d="m0 0-1.656 5.303.331 1.012 1.656 1.22H1.42l1.656-1.22.331-1.012L1.751 0Z" style="fill:#57c5e5;fill-opacity:1;fill-rule:nonzero;stroke:none" transform="matrix(.28853 0 0 -.28853 29.324 58.251)"></path><path d="M0 0h-2.178l-1.656-1.221-.662-2.024 1.656-5.303H.663l1.656 5.303-.663 2.024zm-1.089-1.477L.567-2.698l-1.656-5.303-1.656 5.303z" style="fill:#fff;fill-opacity:1;fill-rule:nonzero;stroke:none" transform="matrix(.28853 0 0 -.28853 29.891 55.864)"></path><path d="M0 0h-.834v.5h2.243V0h-.84v-4.11H0Z" style="fill:#fff;fill-opacity:1;fill-rule:nonzero;stroke:none" transform="matrix(.28853 0 0 -.28853 41.198 61.266)"></path><path d="M0 0v-3.554h-.568v4.61h.605l1.656-2.873 1.613 2.873h.593v-4.61H3.33v3.547L1.761-2.768h-.148Z" style="fill:#fff;fill-opacity:1;fill-rule:nonzero;stroke:none" transform="matrix(.28853 0 0 -.28853 41.879 61.426)" data-source="https://football-logos.cc"></path><!-- source: https://football-logos.cc --></svg>